<svg id="visual" viewBox="0 0 2000 540" width="2000" height="540" xmlns="http://www.w3.org/2000/svg" xmlns:xlink="http://www.w3.org/1999/xlink" version="1.1">
    <path opacity="0.4" d="M0 351L47.7 349.8C95.3 348.7 190.7 346.3 285.8 335.3C381 324.3 476 304.7 571.2 312C666.3 319.3 761.7 353.7 857 367.7C952.3 381.7 1047.7 375.3 1143 369.7C1238.3 364 1333.7 359 1428.8 358.2C1524 357.3 1619 360.7 1714.2 365C1809.3 369.3 1904.7 374.7 1952.3 377.3L2000 380L2000 0L1952.3 0C1904.7 0 1809.3 0 1714.2 0C1619 0 1524 0 1428.8 0C1333.7 0 1238.3 0 1143 0C1047.7 0 952.3 0 857 0C761.7 0 666.3 0 571.2 0C476 0 381 0 285.8 0C190.7 0 95.3 0 47.7 0L0 0Z" fill="#0ea5e9"></path>
    <path opacity="0.4" d="M0 272L47.7 270.2C95.3 268.3 190.7 264.7 285.8 267.3C381 270 476 279 571.2 282.8C666.3 286.7 761.7 285.3 857 278.3C952.3 271.3 1047.7 258.7 1143 253.2C1238.3 247.7 1333.7 249.3 1428.8 262.7C1524 276 1619 301 1714.2 308.2C1809.3 315.3 1904.7 304.7 1952.3 299.3L2000 294L2000 0L1952.3 0C1904.7 0 1809.3 0 1714.2 0C1619 0 1524 0 1428.8 0C1333.7 0 1238.3 0 1143 0C1047.7 0 952.3 0 857 0C761.7 0 666.3 0 571.2 0C476 0 381 0 285.8 0C190.7 0 95.3 0 47.7 0L0 0Z" fill="#708ee8"></path>
    <path opacity="0.4" d="M0 240L47.7 242.8C95.3 245.7 190.7 251.3 285.8 254.8C381 258.3 476 259.7 571.2 255.5C666.3 251.3 761.7 241.7 857 236C952.3 230.3 1047.7 228.7 1143 229.7C1238.3 230.7 1333.7 234.3 1428.8 228.7C1524 223 1619 208 1714.2 198.5C1809.3 189 1904.7 185 1952.3 183L2000 181L2000 0L1952.3 0C1904.7 0 1809.3 0 1714.2 0C1619 0 1524 0 1428.8 0C1333.7 0 1238.3 0 1143 0C1047.7 0 952.3 0 857 0C761.7 0 666.3 0 571.2 0C476 0 381 0 285.8 0C190.7 0 95.3 0 47.7 0L0 0Z" fill="#ad70cc"></path>
    <path opacity="0.4" d="M0 188L47.7 185.8C95.3 183.7 190.7 179.3 285.8 181.2C381 183 476 191 571.2 195C666.3 199 761.7 199 857 196C952.3 193 1047.7 187 1143 182.5C1238.3 178 1333.7 175 1428.8 168.5C1524 162 1619 152 1714.2 152.7C1809.3 153.3 1904.7 164.7 1952.3 170.3L2000 176L2000 0L1952.3 0C1904.7 0 1809.3 0 1714.2 0C1619 0 1524 0 1428.8 0C1333.7 0 1238.3 0 1143 0C1047.7 0 952.3 0 857 0C761.7 0 666.3 0 571.2 0C476 0 381 0 285.8 0C190.7 0 95.3 0 47.7 0L0 0Z" fill="#d24c99"></path>
    <path opacity="0.4" d="M0 99L47.7 106.7C95.3 114.3 190.7 129.7 285.8 127.7C381 125.7 476 106.3 571.2 109.5C666.3 112.7 761.7 138.3 857 139.8C952.3 141.3 1047.7 118.7 1143 112C1238.3 105.3 1333.7 114.7 1428.8 115.5C1524 116.3 1619 108.7 1714.2 112C1809.3 115.3 1904.7 129.7 1952.3 136.8L2000 144L2000 0L1952.3 0C1904.7 0 1809.3 0 1714.2 0C1619 0 1524 0 1428.8 0C1333.7 0 1238.3 0 1143 0C1047.7 0 952.3 0 857 0C761.7 0 666.3 0 571.2 0C476 0 381 0 285.8 0C190.7 0 95.3 0 47.7 0L0 0Z" fill="#da3558"></path>
    <path opacity="0.4" d="M0 50L47.7 53.7C95.3 57.3 190.7 64.7 285.8 63C381 61.3 476 50.7 571.2 44.7C666.3 38.7 761.7 37.3 857 39.7C952.3 42 1047.7 48 1143 55.3C1238.3 62.7 1333.7 71.3 1428.8 78.2C1524 85 1619 90 1714.2 85.3C1809.3 80.7 1904.7 66.3 1952.3 59.2L2000 52L2000 0L1952.3 0C1904.7 0 1809.3 0 1714.2 0C1619 0 1524 0 1428.8 0C1333.7 0 1238.3 0 1143 0C1047.7 0 952.3 0 857 0C761.7 0 666.3 0 571.2 0C476 0 381 0 285.8 0C190.7 0 95.3 0 47.7 0L0 0Z" fill="#c2410c"></path>
</svg>